<?xml version="1.0" encoding="utf-8"?>
<!-- Generator: Adobe Illustrator 22.0.1, SVG Export Plug-In . SVG Version: 6.00 Build 0)  -->
<svg version="1.1" id="Layer_1" xmlns="http://www.w3.org/2000/svg" xmlns:xlink="http://www.w3.org/1999/xlink" x="0px" y="0px"
	 width="27px" height="9px" viewBox="0 0 27 9" style="enable-background:new 0 0 27 9;" xml:space="preserve">
<style type="text/css">
	.st0{fill:#00DC00;}
	.st1{fill:#FFFFFF;}
</style>
<g>
	<title>Desktop</title>
	<desc>Created with Sketch.</desc>
	<g id="Landing-Page_1_">
		<g id="Desktop_1_">
			<g id="Group-5_1_" transform="translate(0.000000, -8.000000)">
				<g id="Sage_1_" transform="translate(0.000000, 12.000000)">
					<path id="Shape_5_" class="st0" d="M-151.9-60.3c-4,0-6.6,2.7-6.6,7.2c0,5.5,4,7.1,6.8,7.1c3.6,0,5.7-2.4,5.7-2.4l-1.8-1.8
						c-1,0.9-2.1,1.4-3.8,1.4c-2.2,0-3.7-1.3-3.7-3h9.9C-145.5-51.9-143.7-60.3-151.9-60.3L-151.9-60.3z M-155.3-54.9
						c0-2.4,1.8-3.5,3.8-3.5c2,0,3.7,1.2,3.7,3.5H-155.3L-155.3-54.9z"/>
					<path id="XMLID_1_" class="st0" d="M-161.4-59.9v1.5c-1-1.2-2.2-1.8-3.9-1.8c-1,0-1.7,0.2-2.4,0.5c-0.7,0.4-1.1,0.7-1.5,1.1
						c-0.4,0.4-0.7,1.1-0.9,1.7c-0.2,0.6-0.3,1.9-0.3,3.7c0,1.8,0.1,3,0.3,3.7c0.2,0.6,0.4,1.2,0.8,1.6c0.4,0.4,0.8,0.8,1.4,1.2
						c0.6,0.4,1.5,0.7,2.4,0.6c1.6,0,2.9-0.6,3.9-1.8v0.8c0,1-0.3,1.7-1,2.2c-0.6,0.5-1.4,0.8-2.5,0.8c-1,0-1.9-0.6-2.5-0.9l-2,2.1
						c1.3,1.1,2.8,1.8,4.5,1.8c1.8,0,3.2-0.6,4.4-1.6c1.2-1,1.9-2.8,1.9-4.8v-12.7H-161.4L-161.4-59.9z M-162-53.3
						c0,1.1,0,1.8-0.1,2.2c-0.1,0.4-0.3,0.8-0.5,1.1c-0.2,0.2-0.5,0.5-0.9,0.7c-0.4,0.2-1,0.4-1.6,0.4c-1.3,0-2.3-0.8-2.5-1
						c-0.3-0.3-0.4-0.6-0.5-1.1c-0.1-0.4-0.1-1.1-0.1-2.2c0-1.1,0-2,0.1-2.4c0.1-0.4,0.3-0.8,0.5-1c0.2-0.2,0.5-0.5,1-0.7
						c0.4-0.2,0.9-0.3,1.6-0.3c0.6,0,1.2,0.1,1.6,0.3c0.4,0.2,0.7,0.5,0.9,0.7c0.3,0.3,0.4,0.6,0.5,1.1c0.1,0.4,0.1,1.2,0.1,2.2
						C-162-53.5-162-53.4-162-53.3L-162-53.3L-162-53.3z"/>
					<path id="Shape_4_" class="st0" d="M-177.9-60.5c-3.2,0-5.2,1.6-5.6,1.9l1.9,1.9c0.4-0.3,1.7-1.2,3.7-1.2c2.4,0,2.5,2,2.5,2
						v0.9h-3.7c-1.6,0.4-4.7,0.8-4.7,4.3c0,2.5,1.5,4.4,5,4.4c1.8,0,3.1-0.6,4.4-1.7v1h3v-8.7C-171.6-58.8-173.6-60.5-177.9-60.5
						L-177.9-60.5z M-174.7-51.4c0,2.6-1.9,2.5-3.6,2.5s-2.8-0.5-2.8-1.6c0-1.1,0.9-1.5,2.8-1.5h3.7
						C-174.7-52-174.7-51.5-174.7-51.4L-174.7-51.4z"/>
					<path id="Shape_3_" class="st0" d="M-188.4-54.7c-1.3-0.1-4.9,0-4.9-1.7c0-1,1.5-1.5,3-1.5c2.3,0,3.8,0.9,4.2,1.2l1.9-1.9
						c-0.6-0.4-2.7-1.9-6.1-1.9c-3.1,0-5.9,1.6-5.9,4.2c0,4,4.9,4,6.9,4.2c1.2,0.1,2.3,0.2,2.3,1.4c0,1.1-1.7,1.7-3,1.7
						c-2.2,0-3.5-0.7-4.7-1.8l-2,2c1.9,1.8,4.3,2.6,6.6,2.6c3.6,0,6.3-1.6,6.3-4.8C-184-53.1-185.5-54.3-188.4-54.7L-188.4-54.7z"/>
				</g>
				<path id="Developer_1_" class="st1" d="M-132.9-33.9h-4.5v-17h4.9c5.9,0,8.4,3.2,8.4,8.2C-124.1-37.5-126.8-33.9-132.9-33.9z
					 M-136.4-35.9h3c4.5,0,6.9-2.5,6.9-6.9c0-5.5-2.6-7.1-6.8-7.1h-3.2V-35.9z M-117.8-34.1c-4.1,0-5.3-2.9-5.3-6.1
					c0-4.3,2.5-6.1,5.5-6.1c3.2,0,4.5,2.2,4.5,5c0,0.5,0,0.9-0.1,1.4h-8.2c0.1,3.5,1.7,4.5,3.8,4.5c1.8,0,2.6-0.8,3-2.2l1.4,0.3
					C-113.7-35.1-115.6-34.1-117.8-34.1z M-121.4-40.9h6.7c0-2.4-0.9-3.8-3.1-3.8C-119.5-44.8-121.3-43.7-121.4-40.9z M-106.2-34.9
					h-1.8l-4.7-12h1.7l3.9,10.5l3.9-10.5h1.6L-106.2-34.9z M-96.2-34.1c-4.1,0-5.3-2.9-5.3-6.1c0-4.3,2.5-6.1,5.5-6.1
					c3.2,0,4.5,2.2,4.5,5c0,0.5,0,0.9-0.1,1.4h-8.2c0.1,3.5,1.7,4.5,3.8,4.5c1.8,0,2.6-0.8,3-2.2l1.4,0.3
					C-92.1-35.1-94-34.1-96.2-34.1z M-99.8-40.9h6.7c0-2.4-0.9-3.8-3.1-3.8C-97.9-44.8-99.7-43.7-99.8-40.9z M-87.4-51.9v17h-2v-17
					H-87.4z M-80-34.3c-4,0-5.3-2.6-5.3-6.1c0-3.8,2-6.2,5.6-6.2c3.6,0,5.1,2.4,5.1,5.9C-74.7-36.8-76.2-34.3-80-34.3z M-79.9-35.6
					c2.3,0,3.7-1.4,3.7-4.9c0-3.5-1.3-4.7-3.6-4.7c-2.3,0-3.9,1.4-3.9,4.7C-83.7-37.2-82.5-35.6-79.9-35.6z M-72.4-29.9v-17h1.5
					l0.1,2c1.1-0.9,2.4-1.7,4.2-1.7c2.5,0,4.3,1.5,4.3,5.8c0,4.6-2.3,6.4-5,6.4c-1.4,0-2.6-0.6-4.1-1.3v5.6H-72.4z M-70.4-43.5v6.5
					c0.6,0.4,1.9,1.4,3.4,1.4c2.5,0,3.4-2.1,3.4-5.2c0-3.2-1-4.5-3.1-4.5C-68.2-45.3-69.7-44.3-70.4-43.5z M-55.6-34.1
					c-4.1,0-5.3-2.9-5.3-6.1c0-4.3,2.5-6.1,5.5-6.1c3.2,0,4.5,2.2,4.5,5c0,0.5,0,0.9-0.1,1.4h-8.2c0.1,3.5,1.7,4.5,3.8,4.5
					c1.8,0,2.6-0.8,3-2.2l1.4,0.3C-51.5-35.1-53.4-34.1-55.6-34.1z M-59.2-40.9h6.7c0-2.4-0.9-3.8-3.1-3.8
					C-57.3-44.8-59.1-43.7-59.2-40.9z M-42.4-46.9v2c-1.7-0.3-4,1.4-4,1.4v8.7h-2v-12h1.2l0.1,2.2c1.1-1.5,2.4-1.9,4-2.2H-42.4z"/>
			</g>
		</g>
	</g>
</g>
<image style="overflow:visible;" width="232" height="67" xlink:href="../../../../../Documents/Cropper Captures/CropperCapture[85].jpg"  transform="matrix(0.75 0 0 0.75 4.5625 -189.9375)">
</image>
<rect x="9.6" y="-184.9" class="st0" width="176" height="24"/>
<g>
	<path class="st1" d="M0.6,9.1V0h2.8c2.1,0,2.7,1,2.7,2.2c0,1.3-0.9,1.9-1.9,2.1v0c1.5,0.2,2.2,1,2.2,2.3c0,1.8-1.3,2.4-3.3,2.4H0.6
		z M2.9,4.2c1,0,2.6-0.3,2.6-1.9c0-1.2-0.6-1.6-2.1-1.6H1.1v3.6H2.9z M3.1,8.5c1.5,0,2.7-0.2,2.7-1.9c0-1.4-1-1.9-2.4-1.9H1.1v3.8
		H3.1z"/>
	<path class="st1" d="M8.4,8.5h4.5v0.5H7.8V0h5v0.5H8.4v3.6h4.1v0.5H8.4V8.5z"/>
	<path class="st1" d="M16.5,9.1V0.6h-2.8V0h6.1v0.5h-2.8v8.5H16.5z"/>
	<path class="st1" d="M23.6,0l3.1,9H26l-1-3.1h-3.7l-1,3.1h-0.6l3.1-9H23.6z M23.1,0.4l-1.7,5h3.3L23.1,0.4z"/>
</g>
</svg>
