<?xml version="1.0" encoding="UTF-8"?>
<svg width="93px" height="36px" viewBox="0 0 93 36" version="1.1" xmlns="http://www.w3.org/2000/svg" xmlns:xlink="http://www.w3.org/1999/xlink">
    <!-- Generator: Sketch 48.2 (47327) - http://www.bohemiancoding.com/sketch -->
    <title>People</title>
    <desc>Created with Sketch.</desc>
    <defs></defs>
    <g id="Landing-Page" stroke="none" stroke-width="1" fill="none" fill-rule="evenodd">
        <g id="People" fill="#86837C">
            <path d="M2.224,16.704 L2.224,27 L0.532,27 L0.532,0.936 L8.056,0.936 C14.716,0.936 16.732,4.356 16.732,8.496 C16.732,14.616 12.88,16.704 6.94,16.704 L2.224,16.704 Z M2.224,15.156 L6.976,15.156 C11.404,15.156 14.896,14.256 14.896,8.46 C14.896,4.392 12.808,2.412 7.552,2.412 L2.224,2.412 L2.224,15.156 Z M25.562,27.432 C19.262,27.432 17.498,22.932 17.498,17.856 C17.498,11.124 21.494,8.352 25.886,8.352 C30.746,8.352 32.726,11.664 32.726,15.84 C32.726,16.632 32.69,17.388 32.546,18.216 L19.37,18.216 C19.514,24.264 22.214,25.74 25.706,25.74 C28.586,25.74 30.098,24.444 30.746,21.96 L32.438,22.284 C31.538,25.992 28.73,27.432 25.562,27.432 Z M19.37,16.668 L30.89,16.668 C30.998,12.312 29.45,9.972 25.67,9.972 C22.61,9.972 19.694,11.808 19.37,16.668 Z M42.6,27.432 C36.516,27.432 34.536,23.292 34.536,17.928 C34.536,11.988 37.596,8.352 43.068,8.352 C48.504,8.352 50.808,11.988 50.808,17.46 C50.808,23.472 48.468,27.432 42.6,27.432 Z M42.744,25.812 C46.524,25.812 48.936,23.544 48.936,17.676 C48.936,11.916 46.704,9.972 42.924,9.972 C39.036,9.972 36.3,12.384 36.3,17.784 C36.3,23.148 38.46,25.812 42.744,25.812 Z M53.878,34.632 L53.878,8.712 L55.426,8.712 L55.57,11.052 C57.046,9.792 59.35,8.352 62.338,8.352 C66.154,8.352 68.998,10.692 68.998,17.388 C68.998,24.48 65.47,27.432 61.294,27.432 C58.99,27.432 56.974,26.388 55.57,25.416 L55.57,34.632 L53.878,34.632 Z M55.642,12.78 L55.642,23.652 C56.614,24.408 58.594,25.848 61.294,25.848 C65.506,25.848 67.162,22.32 67.162,17.208 C67.162,11.844 65.542,9.828 62.014,9.828 C59.458,9.828 56.902,11.412 55.642,12.78 Z M74.048,-0.18 L74.048,27 L72.284,27 L72.284,-0.18 L74.048,-0.18 Z M85.038,27.432 C78.738,27.432 76.974,22.932 76.974,17.856 C76.974,11.124 80.97,8.352 85.362,8.352 C90.222,8.352 92.202,11.664 92.202,15.84 C92.202,16.632 92.166,17.388 92.022,18.216 L78.846,18.216 C78.99,24.264 81.69,25.74 85.182,25.74 C88.062,25.74 89.574,24.444 90.222,21.96 L91.914,22.284 C91.014,25.992 88.206,27.432 85.038,27.432 Z M78.846,16.668 L90.366,16.668 C90.474,12.312 88.926,9.972 85.146,9.972 C82.086,9.972 79.17,11.808 78.846,16.668 Z"></path>
        </g>
    </g>
</svg>