<?xml version="1.0" encoding="utf-8"?>
<!-- Generator: Adobe Illustrator 22.0.1, SVG Export Plug-In . SVG Version: 6.00 Build 0)  -->
<svg version="1.1" id="Layer_1" xmlns="http://www.w3.org/2000/svg" xmlns:xlink="http://www.w3.org/1999/xlink" x="0px" y="0px"
	 width="146px" height="31px" viewBox="0 0 146 31" style="enable-background:new 0 0 146 31;" xml:space="preserve">
<style type="text/css">
	.st0{fill:#8E8A86;}
</style>
<g>
	<path class="st0" d="M10.1,0l7.9,22.9h-1.7L13.6,15H4.2l-2.7,7.8H0L7.8,0H10.1z M8.9,1L4.7,13.7h8.4L8.9,1z"/>
	<path class="st0" d="M19,14.9c0-5.7,2.8-8.4,7.5-8.4c3,0,5.5,1.7,5.7,5.2l-1.7,0.2c-0.3-2.8-1.6-4-4.2-4c-2.7,0-5.7,1.5-5.7,6.8
		c0,5.7,2.8,7.1,5.5,7.1c2.5,0,4.2-1.1,4.6-3.7l1.6,0.3c-0.6,3.4-3.4,4.8-6.2,4.8C20.9,23.3,19,19.8,19,14.9z"/>
	<path class="st0" d="M34.2,14.9c0-5.7,2.8-8.4,7.5-8.4c3,0,5.5,1.7,5.7,5.2l-1.7,0.2c-0.3-2.8-1.6-4-4.2-4c-2.7,0-5.7,1.5-5.7,6.8
		c0,5.7,2.8,7.1,5.5,7.1c2.5,0,4.2-1.1,4.6-3.7l1.6,0.3c-0.6,3.4-3.4,4.8-6.2,4.8C36,23.3,34.2,19.8,34.2,14.9z"/>
	<path class="st0" d="M49.4,14.9c0-5.2,2.7-8.4,7.5-8.4c4.8,0,6.8,3.2,6.8,8c0,5.3-2.1,8.8-7.2,8.8C51.1,23.3,49.4,19.6,49.4,14.9z
		 M62,14.7c0-5.1-2-6.8-5.3-6.8c-3.4,0-5.8,2.1-5.8,6.9c0,4.7,1.9,7,5.7,7C59.9,21.8,62,19.9,62,14.7z"/>
	<path class="st0" d="M66.8,6.8h1.5v10.7c0,2.7,0.8,4.2,3.5,4.2c2.3,0,4.8-1.5,5.8-2.5V6.8h1.5v16.1h-1.4l-0.1-2.1
		c-1.9,1.4-3.7,2.4-6.2,2.4c-3.5,0-4.8-2-4.8-5.6V6.8z"/>
	<path class="st0" d="M96.3,22.9h-1.5V12.1c0-2.7-0.9-4.2-3.6-4.2c-2.3,0-4.8,1.5-5.9,2.5v12.5h-1.5V6.8h1.4l0.1,2.1
		c1.9-1.3,4-2.4,6.3-2.4c3.4,0,4.8,2,4.8,5.6V22.9z"/>
	<path class="st0" d="M108.2,22.3c-0.8,0.5-2.3,0.9-3.4,0.9c-3,0-4.1-1.2-4.1-4v-11h-2.6V6.8h2.6V2.2l1.5-0.3v4.8h4.6v1.4h-4.6v10.7
		c0,1.9,0.4,3.1,2.6,3.1c1,0,2.2-0.4,2.9-0.9L108.2,22.3z"/>
	<path class="st0" d="M111.1,2.8c-0.9,0-1.5-0.5-1.5-1.3c0-0.9,0.5-1.4,1.5-1.4c0.9,0,1.5,0.5,1.5,1.4C112.6,2.3,112,2.8,111.1,2.8z
		 M111.8,22.9h-1.5V6.8h1.5V22.9z"/>
	<path class="st0" d="M128.6,22.9H127V12.1c0-2.7-0.9-4.2-3.6-4.2c-2.3,0-4.8,1.5-5.9,2.5v12.5H116V6.8h1.4l0.1,2.1
		c1.9-1.3,4-2.4,6.3-2.4c3.4,0,4.8,2,4.8,5.6V22.9z"/>
	<path class="st0" d="M145.1,22.4c0,4.6-1.6,7.5-6.9,7.5c-3,0-5.5-1.2-6.2-4.4l1.5-0.6c0.6,2.2,2,3.6,4.7,3.6c3,0,5.4-0.9,5.4-5.9
		V21c-1.5,1.3-3.2,2.2-5.7,2.2c-3.6,0-6.1-2.4-6.1-8.1c0-6.4,3.2-8.7,6.9-8.7c1.9,0,3.6,0.9,4.9,1.6l0.1-1.3h1.4V22.4z M143.6,9.8
		c-0.9-0.6-2.6-1.9-5-1.9c-3.7,0-5.1,2.8-5.1,7.4c0,4.7,1.6,6.7,4.9,6.7c2.2,0,4-1.2,5.2-2.5V9.8z"/>
</g>
</svg>
