<?xml version="1.0" encoding="utf-8"?>
<!-- Generator: Adobe Illustrator 22.0.1, SVG Export Plug-In . SVG Version: 6.00 Build 0)  -->
<svg version="1.1" id="Layer_1" xmlns="http://www.w3.org/2000/svg" xmlns:xlink="http://www.w3.org/1999/xlink" x="0px" y="0px"
	 width="306px" height="31px" viewBox="0 0 306 31" style="enable-background:new 0 0 306 31;" xml:space="preserve">
<style type="text/css">
	.st0{fill:#8E8A86;}
</style>
<g>
	<path class="st0" d="M1.5,21.6h11.3v1.3H0V0h12.6v1.3H1.5v9.2h10.3v1.4H1.5V21.6z"/>
	<path class="st0" d="M28.4,22.9h-1.5V12.1c0-2.7-0.9-4.2-3.6-4.2c-2.3,0-4.8,1.5-5.9,2.5v12.5h-1.5V6.8h1.4l0.1,2.1
		c1.9-1.3,4-2.4,6.3-2.4c3.4,0,4.8,2,4.8,5.6V22.9z"/>
	<path class="st0" d="M40.3,22.3c-0.8,0.5-2.3,0.9-3.4,0.9c-3,0-4.1-1.2-4.1-4v-11h-2.6V6.8h2.6V2.2L34.3,2v4.8h4.6v1.4h-4.6v10.7
		c0,1.9,0.4,3.1,2.6,3.1c1,0,2.2-0.4,2.9-0.9L40.3,22.3z"/>
	<path class="st0" d="M40.9,14.9c0-5.9,3.5-8.3,7.4-8.3c4.3,0,6,2.9,6,6.6c0,0.7,0,1.4-0.2,2.1H42.6c0.1,5.3,2.5,6.6,5.6,6.6
		c2.5,0,3.9-1.1,4.4-3.3l1.5,0.3c-0.8,3.3-3.3,4.5-6,4.5C42.5,23.3,40.9,19.3,40.9,14.9z M52.7,13.8c0.1-3.8-1.3-5.9-4.6-5.9
		c-2.7,0-5.2,1.6-5.5,5.9H52.7z"/>
	<path class="st0" d="M65,8.1c-2-0.3-4.5,0.6-5.8,2v12.9h-1.5V6.8h1.2L59,9c1.5-1.6,3.4-2.6,6-2.5V8.1z"/>
	<path class="st0" d="M66.8,6.8h1.4l0.1,2.1c1.3-1.1,3.3-2.4,5.9-2.4c3.4,0,5.8,2.1,5.8,7.9c0,6.2-3.1,8.8-6.8,8.8
		c-2,0-3.8-0.9-5-1.8v8.1h-1.5V6.8z M68.3,19.9c0.9,0.7,2.6,1.9,5,1.9c3.7,0,5.2-3.1,5.2-7.6c0-4.7-1.4-6.5-4.5-6.5
		c-2.2,0-4.5,1.4-5.6,2.6V19.9z"/>
	<path class="st0" d="M90.8,8.1c-2-0.3-4.5,0.6-5.8,2v12.9h-1.5V6.8h1.2L84.8,9c1.5-1.6,3.4-2.6,6-2.5V8.1z"/>
	<path class="st0" d="M93.5,2.8c-0.9,0-1.5-0.5-1.5-1.3c0-0.9,0.5-1.4,1.5-1.4c0.9,0,1.5,0.5,1.5,1.4C95,2.3,94.4,2.8,93.5,2.8z
		 M94.2,22.9h-1.5V6.8h1.5V22.9z"/>
	<path class="st0" d="M108.5,11.3l-1.5,0.2c-0.3-2.3-1-3.7-3.9-3.7c-3,0-3.8,1.5-3.8,2.9c0,2.3,1.9,2.8,4.3,3.3
		c2.6,0.5,5.3,1.1,5.3,4.6c0,2.7-1.8,4.6-5.7,4.6c-3.4,0-5.5-1.3-6-4.9l1.5-0.3c0.4,2,1.2,3.8,4.6,3.8c2.2,0,4-0.9,4-3.2
		c0-2.2-1.7-2.8-4-3.2c-2.7-0.5-5.6-1.1-5.6-4.6c0-2.9,2.6-4.4,5.5-4.4C107,6.5,108.2,8.4,108.5,11.3z"/>
	<path class="st0" d="M110.9,14.9c0-5.9,3.5-8.3,7.4-8.3c4.3,0,6,2.9,6,6.6c0,0.7,0,1.4-0.2,2.1h-11.6c0.1,5.3,2.5,6.6,5.6,6.6
		c2.5,0,3.9-1.1,4.4-3.3l1.5,0.3c-0.8,3.3-3.3,4.5-6,4.5C112.5,23.3,110.9,19.3,110.9,14.9z M122.7,13.8c0.1-3.8-1.3-5.9-4.6-5.9
		c-2.7,0-5.2,1.6-5.5,5.9H122.7z"/>
	<path class="st0" d="M155.1,22.9h-1.5V1.5h-0.1l-7.9,21.3h-2.1l-7.8-21.4h-0.1v21.4h-1.5V0h2.6l7.9,21.7h0l8-21.7h2.5V22.9z"/>
	<path class="st0" d="M171,20.6c0,0.9,0.2,1.3,1,1.3c0.3,0,0.6-0.1,1-0.2l0.1,1c-0.6,0.3-1,0.4-1.7,0.4c-1.4,0-1.9-1-1.8-2
		c-1.2,1.2-3.2,2.1-5.4,2.1c-4.1,0-4.7-2.8-4.7-4.4c0-4.6,4.1-5.4,7.9-5.4c0.8,0,1.5,0,2.2,0.1v-1.4c0-3.2-0.8-4.4-3.8-4.4
		c-2.7,0-3.7,1-4.1,3l-1.5-0.3c0.5-3,2.5-4,5.7-4c3.8,0,5.3,1.4,5.3,5.4V20.6z M169.4,14.9c-0.7-0.1-1.5-0.1-2.5-0.1
		c-3.2,0-6,0.7-6,3.9c0,1.7,0.7,3.2,3.3,3.2c2,0,4-0.9,5.1-2.3V14.9z"/>
	<path class="st0" d="M187.9,22.9h-1.5V12.1c0-2.7-0.9-4.2-3.6-4.2c-2.3,0-4.8,1.5-5.9,2.5v12.5h-1.5V6.8h1.4l0.1,2.1
		c1.9-1.3,4-2.4,6.3-2.4c3.4,0,4.8,2,4.8,5.6V22.9z"/>
	<path class="st0" d="M203,20.6c0,0.9,0.2,1.3,1,1.3c0.3,0,0.6-0.1,1-0.2l0.1,1c-0.6,0.3-1,0.4-1.7,0.4c-1.4,0-1.9-1-1.8-2
		c-1.2,1.2-3.2,2.1-5.4,2.1c-4.1,0-4.7-2.8-4.7-4.4c0-4.6,4.1-5.4,7.9-5.4c0.8,0,1.5,0,2.2,0.1v-1.4c0-3.2-0.8-4.4-3.8-4.4
		c-2.7,0-3.7,1-4.1,3l-1.5-0.3c0.5-3,2.5-4,5.7-4c3.8,0,5.3,1.4,5.3,5.4V20.6z M201.5,14.9c-0.7-0.1-1.5-0.1-2.5-0.1
		c-3.2,0-6,0.7-6,3.9c0,1.7,0.7,3.2,3.3,3.2c2,0,4-0.9,5.1-2.3V14.9z"/>
	<path class="st0" d="M219.8,22.4c0,4.6-1.6,7.5-6.9,7.5c-3,0-5.5-1.2-6.2-4.4l1.5-0.6c0.6,2.2,2,3.6,4.7,3.6c3,0,5.4-0.9,5.4-5.9
		V21c-1.5,1.3-3.2,2.2-5.7,2.2c-3.6,0-6.1-2.4-6.1-8.1c0-6.4,3.2-8.7,6.9-8.7c1.9,0,3.6,0.9,4.9,1.6l0.1-1.3h1.4V22.4z M218.3,9.8
		c-0.9-0.6-2.6-1.9-5-1.9c-3.7,0-5.1,2.8-5.1,7.4c0,4.7,1.6,6.7,4.9,6.7c2.2,0,4-1.2,5.2-2.5V9.8z"/>
	<path class="st0" d="M223,14.9c0-5.9,3.5-8.3,7.4-8.3c4.3,0,6,2.9,6,6.6c0,0.7,0,1.4-0.2,2.1h-11.6c0.1,5.3,2.5,6.6,5.6,6.6
		c2.5,0,3.9-1.1,4.4-3.3l1.5,0.3c-0.8,3.3-3.3,4.5-6,4.5C224.5,23.3,223,19.3,223,14.9z M234.7,13.8c0.1-3.8-1.3-5.9-4.6-5.9
		c-2.7,0-5.2,1.6-5.5,5.9H234.7z"/>
	<path class="st0" d="M241.1,22.9h-1.5V6.8h1.4l0.1,2.1c1.8-1.4,3.6-2.4,5.9-2.4c2.3,0,3.4,0.9,4,2.4c1.8-1.3,3.7-2.4,6-2.4
		c3.5,0,4.4,2,4.4,5.6v10.8h-1.5V12.2c0-2.7-0.4-4.3-3-4.3c-2,0-4.3,1.4-5.5,2.4c0.1,0.6,0.1,1.2,0.1,1.8v10.8h-1.5V12.2
		c0-2.7-0.4-4.3-3-4.3c-2.1,0-4.6,1.6-5.7,2.6V22.9z"/>
	<path class="st0" d="M264.5,14.9c0-5.9,3.5-8.3,7.4-8.3c4.3,0,6,2.9,6,6.6c0,0.7,0,1.4-0.2,2.1h-11.6c0.1,5.3,2.5,6.6,5.6,6.6
		c2.5,0,3.9-1.1,4.4-3.3l1.5,0.3c-0.8,3.3-3.3,4.5-6,4.5C266,23.3,264.5,19.3,264.5,14.9z M276.2,13.8c0.1-3.8-1.3-5.9-4.6-5.9
		c-2.7,0-5.2,1.6-5.5,5.9H276.2z"/>
	<path class="st0" d="M293.6,22.9h-1.5V12.1c0-2.7-0.9-4.2-3.6-4.2c-2.3,0-4.8,1.5-5.9,2.5v12.5h-1.5V6.8h1.4l0.1,2.1
		c1.9-1.3,4-2.4,6.3-2.4c3.4,0,4.8,2,4.8,5.6V22.9z"/>
	<path class="st0" d="M305.6,22.3c-0.8,0.5-2.3,0.9-3.4,0.9c-3,0-4.1-1.2-4.1-4v-11h-2.6V6.8h2.6V2.2l1.5-0.3v4.8h4.6v1.4h-4.6v10.7
		c0,1.9,0.4,3.1,2.6,3.1c1,0,2.2-0.4,2.9-0.9L305.6,22.3z"/>
</g>
</svg>
