<?xml version="1.0" encoding="utf-8"?>
<!-- Generator: Adobe Illustrator 22.0.1, SVG Export Plug-In . SVG Version: 6.00 Build 0)  -->
<svg version="1.1" id="Layer_1" xmlns="http://www.w3.org/2000/svg" xmlns:xlink="http://www.w3.org/1999/xlink" x="0px" y="0px"
	 width="123px" height="31px" viewBox="0 0 123 31" style="enable-background:new 0 0 123 31;" xml:space="preserve">
<style type="text/css">
	.st0{fill:#8E8A86;}
</style>
<g>
	<path class="st0" d="M1.5,23.9H0V1h12.6v1.3H1.5v9.6h10.3v1.4H1.5V23.9z"/>
	<path class="st0" d="M15.9,3.8c-0.9,0-1.5-0.5-1.5-1.3c0-0.9,0.5-1.4,1.5-1.4s1.5,0.5,1.5,1.4C17.4,3.3,16.8,3.8,15.9,3.8z
		 M16.6,23.9h-1.5V7.8h1.5V23.9z"/>
	<path class="st0" d="M33.4,23.9h-1.5V13.1c0-2.7-0.9-4.2-3.6-4.2c-2.3,0-4.8,1.5-5.9,2.5v12.5h-1.5V7.8h1.4l0.1,2.1
		c1.9-1.3,4-2.4,6.3-2.4c3.4,0,4.8,2,4.8,5.6V23.9z"/>
	<path class="st0" d="M48.5,21.6c0,0.9,0.2,1.3,1,1.3c0.3,0,0.6-0.1,1-0.2l0.1,1c-0.6,0.3-1,0.4-1.7,0.4c-1.4,0-1.9-1-1.8-2
		c-1.2,1.2-3.2,2.1-5.4,2.1c-4.1,0-4.7-2.8-4.7-4.4c0-4.6,4.1-5.4,7.9-5.4c0.8,0,1.5,0,2.2,0.1v-1.4c0-3.2-0.8-4.4-3.8-4.4
		c-2.7,0-3.7,1-4.1,3l-1.5-0.3c0.5-3,2.5-4,5.7-4c3.8,0,5.3,1.4,5.3,5.4V21.6z M47,15.9c-0.7-0.1-1.5-0.1-2.5-0.1
		c-3.2,0-6,0.7-6,3.9c0,1.7,0.7,3.2,3.3,3.2c2,0,4-0.9,5.1-2.3V15.9z"/>
	<path class="st0" d="M65.5,23.9h-1.5V13.1c0-2.7-0.9-4.2-3.6-4.2c-2.3,0-4.8,1.5-5.9,2.5v12.5h-1.5V7.8h1.4l0.1,2.1
		c1.9-1.3,4-2.4,6.3-2.4c3.4,0,4.8,2,4.8,5.6V23.9z"/>
	<path class="st0" d="M68.6,15.9c0-5.7,2.8-8.4,7.5-8.4c3,0,5.5,1.7,5.7,5.2L80,12.9c-0.3-2.8-1.6-4-4.2-4c-2.7,0-5.7,1.5-5.7,6.8
		c0,5.7,2.8,7.1,5.5,7.1c2.5,0,4.2-1.1,4.6-3.7l1.6,0.3c-0.6,3.4-3.4,4.8-6.2,4.8C70.4,24.2,68.6,20.8,68.6,15.9z"/>
	<path class="st0" d="M85.7,3.8c-0.9,0-1.5-0.5-1.5-1.3c0-0.9,0.5-1.4,1.5-1.4c0.9,0,1.5,0.5,1.5,1.4C87.2,3.3,86.6,3.8,85.7,3.8z
		 M86.4,23.9h-1.5V7.8h1.5V23.9z"/>
	<path class="st0" d="M101.6,21.6c0,0.9,0.2,1.3,1,1.3c0.3,0,0.6-0.1,1-0.2l0.1,1c-0.6,0.3-1,0.4-1.7,0.4c-1.4,0-1.9-1-1.8-2
		c-1.2,1.2-3.2,2.1-5.4,2.1c-4.1,0-4.7-2.8-4.7-4.4c0-4.6,4.1-5.4,7.9-5.4c0.8,0,1.5,0,2.2,0.1v-1.4c0-3.2-0.8-4.4-3.8-4.4
		c-2.7,0-3.7,1-4.1,3l-1.5-0.3c0.5-3,2.5-4,5.7-4c3.8,0,5.3,1.4,5.3,5.4V21.6z M100.1,15.9c-0.7-0.1-1.5-0.1-2.5-0.1
		c-3.2,0-6,0.7-6,3.9c0,1.7,0.7,3.2,3.3,3.2c2,0,4-0.9,5.1-2.3V15.9z"/>
	<path class="st0" d="M107.7,23.9h-1.5V0h1.5V23.9z"/>
	<path class="st0" d="M121.9,12.3l-1.5,0.2c-0.3-2.3-1-3.7-3.9-3.7c-3,0-3.8,1.5-3.8,2.9c0,2.3,1.9,2.8,4.3,3.3
		c2.6,0.5,5.3,1.1,5.3,4.6c0,2.7-1.8,4.6-5.7,4.6c-3.4,0-5.5-1.3-6-4.9l1.5-0.3c0.4,2,1.2,3.8,4.6,3.8c2.2,0,4-0.9,4-3.2
		c0-2.2-1.7-2.8-4-3.2c-2.7-0.5-5.6-1.1-5.6-4.6c0-2.9,2.6-4.4,5.5-4.4C120.5,7.5,121.6,9.4,121.9,12.3z"/>
</g>
</svg>
