<?xml version="1.0" encoding="utf-8"?>
<!-- Generator: Adobe Illustrator 22.0.1, SVG Export Plug-In . SVG Version: 6.00 Build 0)  -->
<svg version="1.1" id="Layer_1" xmlns="http://www.w3.org/2000/svg" xmlns:xlink="http://www.w3.org/1999/xlink" x="0px" y="0px"
	 width="86px" height="31px" viewBox="0 0 86 31" style="enable-background:new 0 0 86 31;" xml:space="preserve">
<style type="text/css">
	.st0{fill:#8E8A86;}
</style>
<g>
	<path class="st0" d="M1.5,22.9H0V0h1.5V22.9z"/>
	<path class="st0" d="M19,22.9h-1.5V12.1c0-2.7-0.9-4.2-3.6-4.2C11.5,7.9,9,9.5,8,10.4v12.5H6.4V6.8h1.4l0.1,2.1
		c1.9-1.3,4-2.4,6.3-2.4c3.4,0,4.8,2,4.8,5.6V22.9z"/>
	<path class="st0" d="M30.9,22.3c-0.8,0.5-2.3,0.9-3.4,0.9c-3,0-4.1-1.2-4.1-4v-11h-2.6V6.8h2.6V2.2L24.9,2v4.8h4.6v1.4h-4.6v10.7
		c0,1.9,0.4,3.1,2.6,3.1c1,0,2.2-0.4,2.9-0.9L30.9,22.3z"/>
	<path class="st0" d="M43.1,20.6c0,0.9,0.2,1.3,1,1.3c0.3,0,0.6-0.1,1-0.2l0.1,1c-0.6,0.3-1,0.4-1.7,0.4c-1.4,0-1.9-1-1.8-2
		c-1.2,1.2-3.2,2.1-5.4,2.1c-4.1,0-4.7-2.8-4.7-4.4c0-4.6,4.1-5.4,7.9-5.4c0.8,0,1.5,0,2.2,0.1v-1.4c0-3.2-0.8-4.4-3.8-4.4
		c-2.7,0-3.7,1-4.1,3l-1.5-0.3c0.5-3,2.5-4,5.7-4c3.8,0,5.3,1.4,5.3,5.4V20.6z M41.6,14.9c-0.7-0.1-1.5-0.1-2.5-0.1
		c-3.2,0-6,0.7-6,3.9c0,1.7,0.7,3.2,3.3,3.2c2,0,4-0.9,5.1-2.3V14.9z"/>
	<path class="st0" d="M46.1,14.9c0-5.7,2.8-8.4,7.5-8.4c3,0,5.5,1.7,5.7,5.2l-1.7,0.2c-0.3-2.8-1.6-4-4.2-4c-2.7,0-5.7,1.5-5.7,6.8
		c0,5.7,2.8,7.1,5.5,7.1c2.5,0,4.2-1.1,4.6-3.7l1.6,0.3c-0.6,3.4-3.4,4.8-6.2,4.8C48,23.3,46.1,19.8,46.1,14.9z"/>
	<path class="st0" d="M61.3,14.9c0-5.7,2.8-8.4,7.5-8.4c3,0,5.5,1.7,5.7,5.2l-1.7,0.2c-0.3-2.8-1.6-4-4.2-4c-2.7,0-5.7,1.5-5.7,6.8
		c0,5.7,2.8,7.1,5.5,7.1c2.5,0,4.2-1.1,4.6-3.7l1.6,0.3c-0.6,3.4-3.4,4.8-6.2,4.8C63.2,23.3,61.3,19.8,61.3,14.9z"/>
	<path class="st0" d="M85.5,22.3c-0.8,0.5-2.3,0.9-3.4,0.9c-3,0-4.1-1.2-4.1-4v-11h-2.6V6.8h2.6V2.2L79.5,2v4.8H84v1.4h-4.6v10.7
		c0,1.9,0.4,3.1,2.6,3.1c1,0,2.2-0.4,2.9-0.9L85.5,22.3z"/>
</g>
</svg>
