<?xml version="1.0" encoding="utf-8"?>
<!-- Generator: Adobe Illustrator 22.0.1, SVG Export Plug-In . SVG Version: 6.00 Build 0)  -->
<svg version="1.1" id="Layer_1" xmlns="http://www.w3.org/2000/svg" xmlns:xlink="http://www.w3.org/1999/xlink" x="0px" y="0px"
	 width="122px" height="31px" viewBox="0 0 122 31" style="enable-background:new 0 0 122 31;" xml:space="preserve">
<style type="text/css">
	.st0{fill:#8E8A86;}
</style>
<g>
	<path class="st0" d="M1.5,22.9H0V0h6.6c5.8,0,7.6,3,7.6,6.6c0,5.4-3.4,7.2-8.6,7.2H1.5V22.9z M5.7,12.5c3.9,0,7-0.8,7-5.9
		c0-3.6-1.8-5.3-6.4-5.3H1.5v11.2H5.7z"/>
	<path class="st0" d="M26.7,20.6c0,0.9,0.2,1.3,1,1.3c0.3,0,0.6-0.1,1-0.2l0.1,1c-0.6,0.3-1,0.4-1.7,0.4c-1.4,0-1.9-1-1.8-2
		c-1.2,1.2-3.2,2.1-5.4,2.1c-4.1,0-4.7-2.8-4.7-4.4c0-4.6,4.1-5.4,7.9-5.4c0.8,0,1.5,0,2.2,0.1v-1.4c0-3.2-0.8-4.4-3.8-4.4
		c-2.7,0-3.7,1-4.1,3l-1.5-0.3c0.5-3,2.5-4,5.7-4c3.8,0,5.3,1.4,5.3,5.4V20.6z M25.1,14.9c-0.7-0.1-1.5-0.1-2.5-0.1
		c-3.2,0-6,0.7-6,3.9c0,1.7,0.7,3.2,3.3,3.2c2,0,4-0.9,5.1-2.3V14.9z"/>
	<path class="st0" d="M28,6.8h1.6l5,13.9h0l5.2-13.9h1.6c-2.2,5.8-5.1,13.2-7.3,19.1c-1.2,3.1-2.7,4-4.8,4c-1.1,0-2.2-0.3-2.8-0.6
		l0.3-1.3c0.5,0.2,1.5,0.5,2.5,0.5c1.3,0,2.4-0.6,3.4-3.3l0.9-2.4L28,6.8z"/>
	<path class="st0" d="M44.9,22.9h-1.5V6.8h1.4l0.1,2.1c1.8-1.4,3.6-2.4,5.9-2.4s3.4,0.9,4,2.4c1.8-1.3,3.7-2.4,6-2.4
		c3.5,0,4.4,2,4.4,5.6v10.8h-1.5V12.2c0-2.7-0.4-4.3-3-4.3c-2,0-4.3,1.4-5.5,2.4c0.1,0.6,0.1,1.2,0.1,1.8v10.8h-1.5V12.2
		c0-2.7-0.4-4.3-3-4.3c-2.1,0-4.6,1.6-5.7,2.6V22.9z"/>
	<path class="st0" d="M68.2,14.9c0-5.9,3.5-8.3,7.4-8.3c4.3,0,6,2.9,6,6.6c0,0.7,0,1.4-0.2,2.1H69.8c0.1,5.3,2.5,6.6,5.6,6.6
		c2.5,0,3.9-1.1,4.4-3.3l1.5,0.3c-0.8,3.3-3.3,4.5-6,4.5C69.7,23.3,68.2,19.3,68.2,14.9z M79.9,13.8c0.1-3.8-1.3-5.9-4.6-5.9
		c-2.7,0-5.2,1.6-5.5,5.9H79.9z"/>
	<path class="st0" d="M97.4,22.9h-1.5V12.1c0-2.7-0.9-4.2-3.6-4.2c-2.3,0-4.8,1.5-5.9,2.5v12.5h-1.5V6.8h1.4l0.1,2.1
		c1.9-1.3,4-2.4,6.3-2.4c3.4,0,4.8,2,4.8,5.6V22.9z"/>
	<path class="st0" d="M109.3,22.3c-0.8,0.5-2.3,0.9-3.4,0.9c-3,0-4.1-1.2-4.1-4v-11h-2.6V6.8h2.6V2.2l1.5-0.3v4.8h4.6v1.4h-4.6v10.7
		c0,1.9,0.4,3.1,2.6,3.1c1,0,2.2-0.4,2.9-0.9L109.3,22.3z"/>
	<path class="st0" d="M121.3,11.3l-1.5,0.2c-0.3-2.3-1-3.7-3.9-3.7c-3,0-3.8,1.5-3.8,2.9c0,2.3,1.9,2.8,4.3,3.3
		c2.6,0.5,5.3,1.1,5.3,4.6c0,2.7-1.8,4.6-5.7,4.6c-3.4,0-5.5-1.3-6-4.9l1.5-0.3c0.4,2,1.2,3.8,4.6,3.8c2.2,0,4-0.9,4-3.2
		c0-2.2-1.7-2.8-4-3.2c-2.7-0.5-5.6-1.1-5.6-4.6c0-2.9,2.6-4.4,5.5-4.4C119.8,6.5,121,8.4,121.3,11.3z"/>
</g>
</svg>
