<?xml version="1.0" encoding="utf-8"?>
<!-- Generator: Adobe Illustrator 22.0.1, SVG Export Plug-In . SVG Version: 6.00 Build 0)  -->
<svg version="1.1" id="Layer_1" xmlns="http://www.w3.org/2000/svg" xmlns:xlink="http://www.w3.org/1999/xlink" x="0px" y="0px"
	 width="100px" height="31px" viewBox="0 0 100 31" style="enable-background:new 0 0 100 31;" xml:space="preserve">
<style type="text/css">
	.st0{fill:#8E8A86;}
</style>
<g>
	<path class="st0" d="M2.1,1h10.2v1.4H3.5l-0.8,8.8c1.1-0.9,2.6-1.8,4.8-1.8c2.8,0,6.2,1.4,6.2,7c0,4.4-2.5,7.9-7.2,7.9
		c-3.4,0-5.9-1.7-6.4-5l1.5-0.4c0.4,1.9,1.5,4,5,4c2.6,0,5.5-1.6,5.5-6.5c0-4-2.1-5.6-4.7-5.6c-2.1,0-3.6,0.8-5,2.1l-1.1-0.5L2.1,1z
		"/>
	<path class="st0" d="M15.5,12.5c0-6.1,1.2-12,7.4-12c6.1,0,6.9,5.9,6.9,11.5c0,6.4-1,12.2-7.2,12.2C16.3,24.2,15.5,18.6,15.5,12.5z
		 M28.1,12.3C28.1,6.7,27.6,2,22.8,2C17.9,2,17,6.8,17,12.7c0,5.2,0.7,10.2,5.6,10.2C27.4,22.9,28.1,18,28.1,12.3z"/>
	<path class="st0" d="M31.5,15.9c0-5.7,2.8-8.4,7.5-8.4c3,0,5.5,1.7,5.7,5.2L43,12.9c-0.3-2.8-1.6-4-4.2-4c-2.7,0-5.7,1.5-5.7,6.8
		c0,5.7,2.8,7.1,5.5,7.1c2.5,0,4.2-1.1,4.6-3.7l1.6,0.3c-0.6,3.4-3.4,4.8-6.2,4.8C33.3,24.2,31.5,20.8,31.5,15.9z"/>
	<path class="st0" d="M49.4,23.9h-1.5V0h1.5V23.9z"/>
	<path class="st0" d="M52.6,15.9c0-5.2,2.7-8.4,7.5-8.4c4.8,0,6.8,3.2,6.8,8c0,5.3-2.1,8.8-7.2,8.8C54.3,24.2,52.6,20.6,52.6,15.9z
		 M65.2,15.7c0-5.1-2-6.8-5.3-6.8c-3.4,0-5.8,2.1-5.8,6.9c0,4.7,1.9,7,5.7,7C63.1,22.8,65.2,20.8,65.2,15.7z"/>
	<path class="st0" d="M70,7.8h1.5v10.7c0,2.7,0.8,4.2,3.5,4.2c2.3,0,4.8-1.5,5.8-2.5V7.8h1.5v16.1h-1.4L81,21.8
		c-1.9,1.4-3.7,2.4-6.2,2.4c-3.5,0-4.8-2-4.8-5.6V7.8z"/>
	<path class="st0" d="M99.3,23.9H98L97.8,22c-1.5,1.2-3.3,2.2-5.7,2.2c-3.6,0-6.1-2.3-6.1-8.3c0-6.2,3.2-8.5,6.9-8.5
		c1.9,0,3.6,0.7,4.8,1.6V0h1.6V23.9z M97.8,10.6C96.9,10,95,8.9,92.9,8.9c-3.9,0-5.2,2.8-5.2,7.1c0,4.6,1.5,6.9,4.8,6.9
		c2.2,0,4.1-1.1,5.3-2.4V10.6z"/>
</g>
</svg>
