<?xml version="1.0" encoding="utf-8"?>
<!-- Generator: Adobe Illustrator 22.0.1, SVG Export Plug-In . SVG Version: 6.00 Build 0)  -->
<svg version="1.1" id="Layer_1" xmlns="http://www.w3.org/2000/svg" xmlns:xlink="http://www.w3.org/1999/xlink" x="0px" y="0px"
	 width="173px" height="27px" viewBox="0 0 173 27" style="enable-background:new 0 0 173 27;" xml:space="preserve">
<style type="text/css">
	.st0{fill:#FFFFFF;}
	.st1{fill:#00DC00;}
</style>
<title>Desktop</title>
<desc>Created with Sketch.</desc>
<g>
	<g>
		<path class="st0" d="M60.2,21V0.9h5.6c7,0,10,3.8,10,9.8c0,6.2-3.3,10.4-10.5,10.4H60.2z M65.6,19.8c5.6,0,8.8-3.2,8.8-9.1
			C74.4,4,71,2,65.7,2h-4.1v17.9H65.6z"/>
		<path class="st0" d="M78,13.9c0-5.2,3.1-7.3,6.5-7.3c3.8,0,5.3,2.6,5.3,5.8c0,0.6,0,1.2-0.1,1.8H79.5c0.1,4.7,2.2,5.8,4.9,5.8
			c2.2,0,3.4-1,3.9-2.9l1.3,0.3c-0.7,2.9-2.9,4-5.3,4C79.4,21.3,78,17.8,78,13.9z M88.4,13c0.1-3.4-1.1-5.2-4-5.2
			c-2.4,0-4.6,1.4-4.9,5.2H88.4z"/>
		<path class="st0" d="M95.8,21L90.2,6.9h1.5l4.9,12.6h0.1l4.9-12.6h1.4L97.4,21H95.8z"/>
		<path class="st0" d="M103.3,13.9c0-5.2,3.1-7.3,6.5-7.3c3.8,0,5.3,2.6,5.3,5.8c0,0.6,0,1.2-0.1,1.8h-10.2c0.1,4.7,2.2,5.8,4.9,5.8
			c2.2,0,3.4-1,3.9-2.9l1.3,0.3c-0.7,2.9-2.9,4-5.3,4C104.6,21.3,103.3,17.8,103.3,13.9z M113.6,13c0.1-3.4-1.1-5.2-4-5.2
			c-2.4,0-4.6,1.4-4.9,5.2H113.6z"/>
		<path class="st0" d="M119.3,21H118V0h1.4V21z"/>
		<path class="st0" d="M122.1,14c0-4.6,2.4-7.4,6.6-7.4c4.2,0,6,2.8,6,7c0,4.6-1.8,7.7-6.3,7.7C123.7,21.3,122.1,18.1,122.1,14z
			 M133.3,13.8c0-4.5-1.7-6-4.6-6c-3,0-5.1,1.9-5.1,6c0,4.1,1.7,6.2,5,6.2C131.4,20.1,133.3,18.3,133.3,13.8z"/>
		<path class="st0" d="M137.6,6.9h1.2l0.1,1.8c1.1-1,2.9-2.1,5.2-2.1c2.9,0,5.1,1.8,5.1,7c0,5.5-2.7,7.8-6,7.8
			c-1.8,0-3.3-0.8-4.4-1.6v7.1h-1.3V6.9z M139,18.4c0.8,0.6,2.3,1.7,4.4,1.7c3.3,0,4.5-2.7,4.5-6.7c0-4.1-1.3-5.7-4-5.7
			c-2,0-3.9,1.2-4.9,2.3V18.4z"/>
		<path class="st0" d="M151.4,13.9c0-5.2,3.1-7.3,6.5-7.3c3.8,0,5.3,2.6,5.3,5.8c0,0.6,0,1.2-0.1,1.8h-10.2c0.1,4.7,2.2,5.8,4.9,5.8
			c2.2,0,3.4-1,3.9-2.9l1.3,0.3c-0.7,2.9-2.9,4-5.3,4C152.8,21.3,151.4,17.8,151.4,13.9z M161.8,13c0.1-3.4-1.1-5.2-4-5.2
			c-2.4,0-4.6,1.4-4.9,5.2H161.8z"/>
		<path class="st0" d="M172.6,7.9c-1.7-0.2-4,0.5-5.1,1.7V21H166V6.9h1.1l0.1,1.9c1.3-1.4,3-2.3,5.3-2.2V7.9z"/>
	</g>
	<g>
		<g>
			<path class="st1" d="M45,6.8c-4,0-6.6,2.7-6.6,7.2c0,5.6,4,7.2,6.8,7.2c3.6,0,5.6-2.4,5.6-2.4L49.1,17c-1,0.9-2.1,1.4-3.8,1.4
				c-2.2,0-3.7-1.3-3.7-3.1h9.9C51.4,15.3,53.2,6.8,45,6.8z M41.6,12.9c0-2.4,1.8-3.5,3.8-3.5s3.7,1.2,3.7,3.5H41.6z"/>
			<path class="st1" d="M8.7,12.7c-1.3-0.2-4.9,0-4.9-1.7c0-1,1.5-1.5,2.9-1.5c2.3,0,3.7,0.9,4.2,1.2l1.9-1.9
				c-0.6-0.5-2.7-1.9-6.1-1.9c-3.1,0-5.9,1.6-5.9,4.2c0,4,4.8,4,6.9,4.2c1.2,0.1,2.3,0.2,2.3,1.4c0,1.1-1.7,1.7-3,1.7
				c-2.2,0-3.4-0.7-4.7-1.8l-2,2c1.9,1.8,4.2,2.6,6.6,2.6c3.6,0,6.3-1.6,6.3-4.8C13,14.3,11.6,13,8.7,12.7z"/>
			<path class="st1" d="M19.1,6.8c-3.1,0-5.2,1.6-5.6,1.9l1.9,1.9c0.4-0.3,1.7-1.2,3.7-1.2c2.4,0,3.1,1,3.1,2v1.4l-4.3,0
				c-1.6,0-4.7,0.4-4.7,3.9c0,2.6,1.5,4.5,5,4.5c1.8,0,3.1-0.6,4-1.7V21h3.1v-9.2C25.4,8.5,23.4,6.8,19.1,6.8z M22.3,15.9
				c0,2.7-1.9,2.5-3.6,2.5c-1.7,0-2.8-0.5-2.8-1.7c0-1.1,0.9-1.5,2.7-1.5h3.7V15.9z"/>
			<path class="st1" d="M35,8.7c-1.1-1.2-2.3-1.8-4.1-1.8c-3,0-4.5,1.7-5,3.4c-0.2,0.7-0.3,1.9-0.3,3.8c0,1.7,0,3.3,0.6,4.6
				c0.8,1.7,2.9,2.7,4.6,2.7c1.7,0,3.1-0.6,4.1-1.8v0.9c0,1-0.3,1.7-1,2.2c-0.7,0.5-1.5,0.9-2.6,0.9c-1,0-2-0.6-2.6-1l-2.1,2.1
				c1.4,1.1,3,1.9,4.7,1.9c1.9,0,3.4-0.5,4.7-1.6c1.3-1,2-2.8,2-4.8V7.1H35V8.7z M34.9,16.2c-0.1,0.4-0.3,0.8-0.5,1.1
				c-0.2,0.2-1.1,1-2.5,1c-1.3,0-2.3-0.8-2.5-1c-0.3-0.3-0.4-0.7-0.5-1.1c-0.1-0.4-0.1-1.1-0.1-2.2c0-1.1,0-2,0.1-2.4
				c0.1-0.4,0.3-0.8,0.5-1.1c0.2-0.2,1-1.1,2.6-1.1c1.6,0,2.3,0.8,2.5,1c0.3,0.3,0.4,0.7,0.5,1.1C35,12.1,35,13,35,14
				C35,15.1,35,15.8,34.9,16.2z"/>
		</g>
	</g>
</g>
</svg>
