<?xml version="1.0" encoding="utf-8"?>
<!-- Generator: Adobe Illustrator 22.0.1, SVG Export Plug-In . SVG Version: 6.00 Build 0)  -->
<svg version="1.1" id="Layer_1" xmlns="http://www.w3.org/2000/svg" xmlns:xlink="http://www.w3.org/1999/xlink" x="0px" y="0px"
	 width="132px" height="9px" viewBox="0 0 132 9" style="enable-background:new 0 0 132 9;" xml:space="preserve">
<style type="text/css">
	.st0{fill:#00DC00;}
	.st1{fill:#FFFFFF;}
</style>
<g>
	<path class="st1" d="M5.6,6.1V0.2h0.6v5.9C6.2,8.1,5.1,9,3.1,9C1,9,0.2,8,0.2,6.2V0.2h0.6v5.9c0,1.8,1,2.4,2.4,2.4
		C4.7,8.5,5.6,7.9,5.6,6.1z"/>
	<path class="st1" d="M14.2,8.9L9.3,0.7v8.2H8.7V0.2h0.9l4.8,8v-8H15v8.7H14.2z"/>
	<path class="st1" d="M17.5,8.9V0.2h2.4c3,0,4.3,1.6,4.3,4.2c0,2.7-1.4,4.5-4.5,4.5H17.5z M19.8,8.4c2.4,0,3.8-1.4,3.8-3.9
		c0-2.9-1.4-3.8-3.7-3.8h-1.8v7.7H19.8z"/>
	<path class="st1" d="M26.9,8.4h4.3v0.5h-4.9V0.2H31v0.5h-4.2v3.5h3.9v0.5h-3.9V8.4z"/>
	<path class="st1" d="M38.9,8.9h-0.6L36.1,5h-2.5v3.8H33V0.2h2.7c2.2,0,2.8,1,2.8,2.3c0,1.3-0.7,2.1-1.8,2.4L38.9,8.9z M35.6,4.5
		c1.3,0,2.2-0.5,2.2-2.1c0-1.5-1-1.8-2.4-1.8h-1.8v3.8H35.6z"/>
	<path class="st1" d="M42.8,4.7c0-3.1,1.6-4.7,3.9-4.7c1.7,0,2.9,0.9,3.1,2.8l-0.6,0c-0.2-1.5-0.9-2.3-2.6-2.3c-2,0-3.3,1.4-3.3,4.1
		c0,2.8,1.2,3.9,3.1,3.9c1.5,0,2.3-0.6,2.7-2l0.5,0.1C49.4,8.4,48,9,46.5,9C43.8,9,42.8,7.2,42.8,4.7z"/>
	<path class="st1" d="M51.2,4.5c0-2.6,1.4-4.5,4-4.5c2.5,0,3.7,1.9,3.7,4.3C58.9,7.2,57.6,9,55,9C52.5,9,51.2,7.1,51.2,4.5z
		 M58.3,4.5c0-2.5-1.3-3.9-3.1-3.9c-1.9,0-3.3,1.4-3.3,4c0,2.5,1.3,4,3.2,4C57,8.5,58.3,7.2,58.3,4.5z"/>
	<path class="st1" d="M66.4,8.9l-4.9-8.2v8.2H61V0.2h0.9l4.8,8v-8h0.6v8.7H66.4z"/>
	<path class="st1" d="M70,2.3c0,1.2,0.8,1.5,2,1.9c1.3,0.4,2.9,0.7,2.9,2.5c0,1.7-1.4,2.4-2.9,2.4c-2,0-2.8-1-3-2.3l0.6-0.1
		c0.2,1,0.7,1.9,2.4,1.9c1,0,2.2-0.3,2.2-1.8c0-1.4-1.2-1.7-2.4-2c-1.2-0.3-2.4-0.8-2.4-2.4c0-1.4,1.1-2.3,2.7-2.3
		c1.5,0,2.5,0.7,2.7,2.4l-0.6,0.1c-0.2-0.9-0.5-1.9-2.1-1.9C70.5,0.6,70,1.4,70,2.3z"/>
	<path class="st1" d="M77.9,8.9V0.7h-2.7V0.2h5.9v0.5h-2.7v8.2H77.9z"/>
	<path class="st1" d="M88.5,8.9h-0.6L85.7,5h-2.5v3.8h-0.6V0.2h2.7c2.2,0,2.8,1,2.8,2.3c0,1.3-0.7,2.1-1.8,2.4L88.5,8.9z M85.2,4.5
		c1.3,0,2.2-0.5,2.2-2.1c0-1.5-1-1.8-2.4-1.8h-1.8v3.8H85.2z"/>
	<path class="st1" d="M95.5,6.1V0.2h0.6v5.9C96.1,8.1,95,9,93,9C90.9,9,90,8,90,6.2V0.2h0.6v5.9c0,1.8,1,2.4,2.4,2.4
		C94.6,8.5,95.5,7.9,95.5,6.1z"/>
	<path class="st1" d="M98.1,4.7c0-3.1,1.6-4.7,3.9-4.7c1.7,0,2.9,0.9,3.1,2.8l-0.5,0c-0.2-1.5-0.9-2.3-2.6-2.3c-2,0-3.3,1.4-3.3,4.1
		c0,2.8,1.2,3.9,3.1,3.9c1.5,0,2.3-0.6,2.7-2l0.5,0.1c-0.3,1.8-1.7,2.4-3.2,2.4C99.1,9,98.1,7.2,98.1,4.7z"/>
	<path class="st1" d="M108.5,8.9V0.7h-2.7V0.2h5.9v0.5H109v8.2H108.5z"/>
	<path class="st1" d="M113.7,8.9h-0.6V0.2h0.6V8.9z"/>
	<path class="st1" d="M115.8,4.5c0-2.6,1.4-4.5,4-4.5c2.5,0,3.7,1.9,3.7,4.3c0,2.8-1.4,4.7-3.9,4.7C117,9,115.8,7.1,115.8,4.5z
		 M122.9,4.5c0-2.5-1.3-3.9-3.1-3.9c-1.9,0-3.3,1.4-3.3,4c0,2.5,1.3,4,3.2,4C121.5,8.5,122.9,7.2,122.9,4.5z"/>
	<path class="st1" d="M131,8.9l-4.9-8.2v8.2h-0.6V0.2h0.9l4.8,8v-8h0.6v8.7H131z"/>
</g>
</svg>
